<?xml version="1.0" encoding="iso-8859-1"?>
<!-- Generator: Adobe Illustrator 17.1.0, SVG Export Plug-In . SVG Version: 6.00 Build 0)  -->
<!DOCTYPE svg PUBLIC "-//W3C//DTD SVG 1.0//EN" "http://www.w3.org/TR/2001/REC-SVG-20010904/DTD/svg10.dtd">
<svg version="1.0" xmlns="http://www.w3.org/2000/svg" xmlns:xlink="http://www.w3.org/1999/xlink" x="0px" y="0px" width="110px"
	 height="110px" viewBox="0 0 110 110" style="enable-background:new 0 0 110 110;" xml:space="preserve">
<g id="Artboard">
</g>
<g id="Multicolor">
	<circle style="fill:#32BEA6;" cx="55" cy="55" r="55"/>
	<g>
		<path style="fill:#3E3E3F;" d="M63,57c0-1.105,0.895-2,2-2h16c1.105,0,2,0.895,2,2v28c0,1.105-0.895,2-2,2H65
			c-1.105,0-2-0.895-2-2V57z"/>
		<path style="fill:#5B5C5F;" d="M83,60.869V57c0-1.104-0.896-2-2-2H65c-1.104,0-2,0.896-2,2v23.869L83,60.869z"/>
		<path style="fill:#3E3E3F;" d="M23,25c0-1.105,0.895-2,2-2h28c1.105,0,2,0.895,2,2v20c0,1.105-0.895,2-2,2H25
			c-1.105,0-2-0.895-2-2V25z"/>
		<path style="fill:#5B5C5F;" d="M25,23c-1.104,0-2,0.896-2,2v20c0,1.104,0.896,2,2,2h0.518l24-24H25z"/>
		<path style="fill:#F0F1F1;" d="M47,52c0,0.552-0.448,1-1,1H32c-0.552,0-1-0.448-1-1s0.448-1,1-1h14C46.552,51,47,51.448,47,52z"/>
		<rect x="35" y="47" style="fill:#CFD3D4;" width="8" height="4"/>
		<path style="fill:#FFFFFF;" d="M55,45v-6H23v6c0,1.105,0.895,2,2,2h28C54.105,47,55,46.105,55,45z"/>
		<circle style="fill:#B6BCBD;" cx="39" cy="43" r="2"/>
		<path style="fill:#FFFFFF;" d="M63,57v4h20v-4c0-1.105-0.895-2-2-2H65C63.895,55,63,55.895,63,57z"/>
		<path style="fill:#FFFFFF;" d="M83,85v-4H63v4c0,1.105,0.895,2,2,2h16C82.105,87,83,86.105,83,85z"/>
		<circle style="fill:#B6BCBD;" cx="73" cy="84" r="2"/>
		<path style="fill:#FBE158;" d="M59,33.135C59.489,33.053,59.988,33,60.5,33c4.963,0,9,4.037,9,9H65l7.5,9l7.5-9h-4.5
			c0-8.271-6.729-15-15-15c-0.506,0-1.006,0.027-1.5,0.076V33.135z"/>
		<path style="fill:#FBE158;" d="M53,76.865C52.511,76.947,52.012,77,51.5,77c-4.963,0-9-4.037-9-9H47l-7.5-9L32,68h4.5
			c0,8.271,6.729,15,15,15c0.506,0,1.006-0.027,1.5-0.076V76.865z"/>
	</g>
</g>
</svg>
