<?xml version="1.0" encoding="iso-8859-1"?>
<!-- Generator: Adobe Illustrator 17.1.0, SVG Export Plug-In . SVG Version: 6.00 Build 0)  -->
<!DOCTYPE svg PUBLIC "-//W3C//DTD SVG 1.0//EN" "http://www.w3.org/TR/2001/REC-SVG-20010904/DTD/svg10.dtd">
<svg version="1.0" xmlns="http://www.w3.org/2000/svg" xmlns:xlink="http://www.w3.org/1999/xlink" x="0px" y="0px" width="110px"
	 height="110px" viewBox="0 0 110 110" style="enable-background:new 0 0 110 110;" xml:space="preserve">
<g id="Artboard">
</g>
<g id="Multicolor">
	<circle style="fill:#FABC3D;" cx="55" cy="55" r="55"/>
	<g>
		<path style="fill:#059BBF;" d="M87,36.657c0-1.061-0.421-2.078-1.172-2.828l-9.657-9.657C75.421,23.421,74.404,23,73.343,23H27
			c-2.209,0-4,1.791-4,4v56c0,2.209,1.791,4,4,4h56c2.209,0,4-1.791,4-4V36.657z"/>
		<path style="fill:#21B2D1;" d="M47,43c-2.209,0-4-1.791-4-4V23H27c-2.209,0-4,1.791-4,4v48.652L55.652,43H47z"/>
		<path style="fill:#059BBF;" d="M71,39c0,2.209-1.791,4-4,4H35c-2.209,0-4-1.791-4-4V23h40V39z"/>
		<path style="fill:#FFFFFF;" d="M71,23H43v16c0,2.209,1.791,4,4,4h20c2.209,0,4-1.791,4-4V23z"/>
		<path style="fill:#21B2D1;" d="M71,23v4.652l4.183-4.183C74.617,23.175,73.992,23,73.343,23H71z"/>
		<rect x="31" y="55" style="fill:#FFFFFF;" width="48" height="32"/>
		<rect x="59" y="25" style="fill:#059BBF;" width="8" height="16"/>
		<path style="fill:#E2E4E5;" d="M72,64c0,0.552-0.448,1-1,1H40c-0.552,0-1-0.448-1-1s0.448-1,1-1h31C71.552,63,72,63.448,72,64z"/>
		<path style="fill:#E2E4E5;" d="M72,72c0,0.552-0.448,1-1,1H40c-0.552,0-1-0.448-1-1s0.448-1,1-1h31C71.552,71,72,71.448,72,72z"/>
		<path style="fill:#E2E4E5;" d="M72,80c0,0.552-0.448,1-1,1H40c-0.552,0-1-0.448-1-1s0.448-1,1-1h31C71.552,79,72,79.448,72,80z"/>
		<polygon style="fill:#21B2D1;" points="67,31.627 67,25 59,25 59,39.627 		"/>
	</g>
</g>
</svg>
