<?xml version="1.0" encoding="iso-8859-1"?>
<!-- Generator: Adobe Illustrator 17.1.0, SVG Export Plug-In . SVG Version: 6.00 Build 0)  -->
<!DOCTYPE svg PUBLIC "-//W3C//DTD SVG 1.0//EN" "http://www.w3.org/TR/2001/REC-SVG-20010904/DTD/svg10.dtd">
<svg version="1.0" xmlns="http://www.w3.org/2000/svg" xmlns:xlink="http://www.w3.org/1999/xlink" x="0px" y="0px" width="110px"
	 height="110px" viewBox="0 0 110 110" style="enable-background:new 0 0 110 110;" xml:space="preserve">
<g id="Artboard">
</g>
<g id="Multicolor">
	<circle style="fill:#25B7D3;" cx="55" cy="55" r="55"/>
	<g>
		<circle style="fill:#0484AB;" cx="55" cy="55" r="32"/>
		<path style="fill:#21B2D1;" d="M55,23c-17.673,0-32,14.327-32,32c0,8.169,3.066,15.62,8.104,21.275l45.171-45.171
			C70.62,26.066,63.169,23,55,23z"/>
		<path style="fill:#17B198;" d="M47.615,53.872L39,57.564l-3.692-9.846h11.077l7.385-9.846v-3.692l-14.385-7.109
			c-6.852,3.84-12.143,10.125-14.697,17.676l5.697,12.817l7.385,6.154l9.846,18.462h3.692l6.154-18.462L47.615,53.872z"/>
		<path style="fill:#8CE3D4;" d="M47.615,53.872L39,57.564l-3.692-9.846h11.077l7.385-9.846v-3.692l-14.385-7.109
			c-6.852,3.84-12.143,10.125-14.697,17.676l5.697,12.817l7.385,6.154l2.049,3.842l10.743-10.743L47.615,53.872z"/>
		<path style="fill:#17B198;" d="M87,55c0-12.103-6.721-22.635-16.633-28.073l-7.982,13.303l6.154,3.692L74.692,39l3.692,4.923
			h3.692v3.692l-12.308-1.231l-4.923,7.385l-2.462,13.538l4.923,6.154l0.988,10.644C79.329,79.056,87,67.928,87,55z"/>
		<path style="fill:#8CE3D4;" d="M62.385,40.231l2.977,1.786l10.903-10.904c-1.799-1.603-3.77-3.018-5.898-4.186L62.385,40.231z"/>
	</g>
</g>
</svg>
