<?xml version="1.0" encoding="UTF-8" standalone="no"?>
<!-- Created with Inkscape (http://www.inkscape.org/) -->

<svg
   xmlns:dc="http://purl.org/dc/elements/1.1/"
   xmlns:cc="http://creativecommons.org/ns#"
   xmlns:rdf="http://www.w3.org/1999/02/22-rdf-syntax-ns#"
   xmlns:svg="http://www.w3.org/2000/svg"
   xmlns="http://www.w3.org/2000/svg"
   xmlns:sodipodi="http://sodipodi.sourceforge.net/DTD/sodipodi-0.dtd"
   xmlns:inkscape="http://www.inkscape.org/namespaces/inkscape"
   width="64.121666mm"
   height="19.002975mm"
   viewBox="0 0 64.121666 19.002975"
   version="1.1"
   id="svg8"
   sodipodi:docname="logo.svg"
   inkscape:version="0.92.2 (unknown)"
   inkscape:export-filename="/home/isaac/Desktop/Code/Edward/static/logo.png"
   inkscape:export-xdpi="102.98672"
   inkscape:export-ydpi="102.98672">
  <defs
     id="defs2" />
  <sodipodi:namedview
     id="base"
     pagecolor="#ffffff"
     bordercolor="#666666"
     borderopacity="1.0"
     inkscape:pageopacity="0.0"
     inkscape:pageshadow="2"
     inkscape:zoom="1.979899"
     inkscape:cx="222.62388"
     inkscape:cy="24.688532"
     inkscape:document-units="mm"
     inkscape:current-layer="layer1"
     showgrid="false"
     inkscape:window-width="1600"
     inkscape:window-height="847"
     inkscape:window-x="0"
     inkscape:window-y="0"
     inkscape:window-maximized="1" />
  <metadata
     id="metadata5">
    <rdf:RDF>
      <cc:Work
         rdf:about="">
        <dc:format>image/svg+xml</dc:format>
        <dc:type
           rdf:resource="http://purl.org/dc/dcmitype/StillImage" />
        <dc:title></dc:title>
      </cc:Work>
    </rdf:RDF>
  </metadata>
  <g
     inkscape:label="Layer 1"
     inkscape:groupmode="layer"
     id="layer1"
     transform="translate(-20.416841,-79.594106)">
    <path
       style="font-style:italic;font-variant:normal;font-weight:normal;font-stretch:normal;font-size:10.58333302px;line-height:1.25;font-family:'Asap Condensed';-inkscape-font-specification:'Asap Condensed, Italic';letter-spacing:0px;word-spacing:0px;fill:#000000;fill-opacity:1;stroke:none;stroke-width:0.99999994"
       d="m 152.75391,300.82812 -13.1211,2.43165 v 1.91992 c 2.21867,0 3.81945,0.19217 4.80078,0.57617 0.98134,0.384 1.57964,1.04571 1.79297,1.98437 0.128,0.59734 0.2132,1.7068 0.25586,3.32813 0.0853,1.62133 0.12696,3.64808 0.12696,6.08008 v 6.52734 c -1.49334,-1.49333 -3.05055,-2.581 -4.67188,-3.26367 -1.57867,-0.68267 -3.39145,-1.02344 -5.43945,-1.02344 -2.38934,0 -4.60825,0.44775 -6.65625,1.34375 -2.048,0.85334 -3.81917,2.06977 -5.3125,3.64844 -1.45067,1.536 -2.60175,3.39236 -3.45508,5.56836 -0.81067,2.13333 -1.2168,4.45727 -1.2168,6.97461 0,2.56 0.40613,4.92751 1.2168,7.10351 0.85333,2.176 2.00441,4.05415 3.45508,5.63282 1.49333,1.536 3.24271,2.75243 5.24804,3.64843 2.048,0.85334 4.28871,1.2793 6.72071,1.2793 2.34666,0 4.37341,-0.44775 6.08007,-1.34375 1.74934,-0.93867 3.39174,-2.49587 4.92774,-4.67187 h 0.25586 v 6.01562 l 10.62305,-0.70312 v -2.17579 c -0.98134,0 -1.79165,-0.0436 -2.43165,-0.1289 -0.59733,-0.0853 -1.0867,-0.2141 -1.4707,-0.38477 -0.34133,-0.21333 -0.6187,-0.48874 -0.83203,-0.83008 -0.17067,-0.34133 -0.32122,-0.76925 -0.44922,-1.28125 -0.21333,-0.81066 -0.34014,-2.15391 -0.38281,-4.03125 -0.0427,-1.92 -0.0645,-4.35287 -0.0645,-7.29687 z m 146.125,0 -13.1211,2.43165 v 1.91992 c 2.21867,0 3.81945,0.19217 4.80078,0.57617 0.98134,0.384 1.57964,1.04571 1.79297,1.98437 0.128,0.59734 0.2132,1.7068 0.25586,3.32813 0.0853,1.62133 0.12696,3.64808 0.12696,6.08008 v 6.52734 c -1.49334,-1.49333 -3.05055,-2.581 -4.67188,-3.26367 -1.57867,-0.68267 -3.39145,-1.02344 -5.43945,-1.02344 -2.38934,0 -4.60825,0.44775 -6.65625,1.34375 -2.048,0.85334 -3.81917,2.06977 -5.3125,3.64844 -1.45067,1.536 -2.60175,3.39236 -3.45508,5.56836 -0.81067,2.13333 -1.2168,4.45727 -1.2168,6.97461 0,2.56 0.40613,4.92751 1.2168,7.10351 0.85333,2.176 2.00441,4.05415 3.45508,5.63282 0.1523,0.15665 0.31893,0.29531 0.47656,0.44531 1.29096,-1.24808 2.58209,-2.49606 3.87305,-3.74414 -0.49512,-1.06852 -0.90062,-2.2705 -1.21289,-3.61328 -0.384,-1.83467 -0.57618,-3.8832 -0.57618,-6.14453 0,-4.352 0.78852,-7.78541 2.36719,-10.30274 1.62133,-2.56 3.96902,-3.83984 7.04102,-3.83984 1.49333,0 2.98713,0.34077 4.48047,1.02344 1.536,0.63999 2.79405,1.60085 3.77539,2.88085 0.68266,0.85334 1.13041,1.85582 1.34375,3.00782 0.0195,0.0876 0.0328,0.19919 0.0508,0.29297 2.20158,-2.12846 4.40388,-4.25632 6.60547,-6.38477 z m 0,22.45313 v 6.8418 c 6.87912,-7.4316 13.7576,-14.86332 20.63671,-22.29493 -0.78534,-0.73998 -1.57012,-1.48072 -2.35546,-2.2207 -6.09365,5.89124 -12.18761,11.78259 -18.28125,17.67383 z m 0,6.8418 c -2.09024,2.2581 -4.18126,4.51533 -6.27149,6.77343 v 1.75586 c 0,2.304 -0.12876,4.11679 -0.38476,5.43946 -0.256,1.32266 -0.68197,2.45391 -1.2793,3.39258 -0.42667,0.63999 -0.96156,1.21651 -1.60156,1.72851 -0.64,0.46933 -1.34333,0.8953 -2.11133,1.2793 -0.72533,0.34133 -1.49402,0.59691 -2.30469,0.76758 -0.768,0.17066 -1.53473,0.25585 -2.30273,0.25585 -1.10582,0 -2.11993,-0.18327 -3.04883,-0.5371 -0.84436,0.91217 -1.68885,1.82415 -2.5332,2.73632 1.7341,0.57229 3.59039,0.87305 5.58203,0.87305 2.34666,0 4.37341,-0.44775 6.08007,-1.34375 1.74934,-0.93867 3.39174,-2.49587 4.92774,-4.67187 h 0.25586 v 6.01562 l 10.62305,-0.70312 v -2.17579 c -0.98134,0 -1.79165,-0.0436 -2.43165,-0.1289 -0.59733,-0.0853 -1.0867,-0.2141 -1.4707,-0.38477 -0.34133,-0.21333 -0.6187,-0.48874 -0.83203,-0.83008 -0.17067,-0.34133 -0.32122,-0.76925 -0.44922,-1.28125 -0.21333,-0.81066 -0.34014,-2.15391 -0.38281,-4.03125 -0.0427,-1.92 -0.0644,-4.35287 -0.0644,-7.29687 z m -21.83789,23.59179 c -0.38343,-0.12653 -0.76784,-0.25173 -1.13868,-0.40625 -1.80081,-0.80461 -3.38356,-1.88239 -4.77148,-3.20312 -2.41607,2.33582 -4.83197,4.67199 -7.24805,7.00781 0.29354,0.21838 0.58692,0.51035 0.88086,0.82422 0.37159,0.21436 0.74084,0.60894 1.07617,1.25 0.01,0.0119 0.0196,0.0232 0.0293,0.0352 0.74244,0.78872 1.48412,1.57845 2.22656,2.36718 0.40845,0.29549 0.81746,0.47779 1.22461,0.46485 2.57344,-2.78013 5.14726,-5.55972 7.72071,-8.33985 z m -8.94532,7.875 c -0.74093,-0.53602 -1.48405,-1.45538 -2.22656,-2.36718 -0.007,-0.008 -0.0142,-0.0157 -0.0215,-0.0234 -0.002,-0.005 -0.005,-0.007 -0.008,-0.0117 -0.35876,-0.44029 -0.71765,-0.86717 -1.07617,-1.25 -1.34745,-0.77731 -2.72319,0.95493 -2.60156,3.16602 0.5406,4.29191 -1.02913,8.42526 -4.04102,11.54687 3.60302,-3.39155 7.20557,-6.78228 10.8086,-10.17383 -0.2781,-0.29543 -0.55589,-0.59128 -0.83399,-0.88672 z m 11.47852,-10.61132 c 4.3448,-4.69375 8.6884,-9.38829 13.0332,-14.08204 v -2.46875 c 0,-2.04993 -0.11544,-3.62237 -0.33398,-4.76171 -5.75635,5.56514 -11.51319,11.13017 -17.26953,16.69531 0.18137,0.39142 0.37222,0.76843 0.57812,1.12305 0.81067,1.27999 1.79331,2.28247 2.94531,3.00781 0.33459,0.19119 0.68552,0.34868 1.04688,0.48633 z M 77.806641,304.66797 v 2.43164 c 1.365333,0.0853 2.472838,0.23588 3.326171,0.44922 0.853334,0.17066 1.495209,0.53322 1.921876,1.08789 0.469333,0.512 0.766531,1.23711 0.894531,2.17578 0.170666,0.896 0.255859,2.09065 0.255859,3.58398 v 29.82422 c 0,1.49334 -0.08519,2.70977 -0.255859,3.64844 -0.170667,0.93867 -0.511438,1.66378 -1.023438,2.17578 -0.512,0.512 -1.237114,0.87456 -2.175781,1.08789 -0.896,0.21334 -2.090651,0.34015 -3.583984,0.38281 v 2.4336 h 39.744144 l 0.95898,-12.60938 h -2.43164 c -0.42667,1.87734 -0.95961,3.45633 -1.59961,4.73633 -0.64,1.23734 -1.49388,2.23981 -2.56055,3.00781 -1.06666,0.768 -2.38813,1.32273 -3.96679,1.66407 -1.57867,0.29866 -3.50039,0.44726 -5.76172,0.44726 -2.005335,0 -3.689356,-0.10502 -5.054689,-0.31836 -1.365334,-0.256 -2.474792,-0.66213 -3.328125,-1.21679 -0.810667,-0.59734 -1.387183,-1.34424 -1.728516,-2.24024 -0.341333,-0.93866 -0.511719,-2.11153 -0.511719,-3.51953 v -14.46484 c 2.389333,0 4.352672,0.17234 5.888672,0.51367 1.578667,0.29867 2.814938,0.76625 3.710937,1.40625 0.93867,0.59733 1.57859,1.36602 1.91992,2.30469 0.384,0.93866 0.57617,2.04812 0.57617,3.32812 h 2.24024 v -17.47266 h -2.24024 c 0,1.28 -0.21395,2.38946 -0.64062,3.32813 -0.384,0.93867 -1.04376,1.70735 -1.98242,2.30469 -0.896002,0.59733 -2.134227,1.04508 -3.712893,1.34375 -1.536,0.256 -3.455766,0.38476 -5.759766,0.38476 v -18.36914 c 0,-0.72533 0.362558,-1.08789 1.087891,-1.08789 h 8.128908 c 2.176,0 4.0304,0.12877 5.5664,0.38477 1.536,0.256 2.79601,0.70375 3.77735,1.34375 1.024,0.64 1.81252,1.51371 2.36719,2.62304 0.59733,1.06667 1.02329,2.45349 1.27929,4.16016 h 2.24024 l -0.57617,-11.26367 z m 144.560549,14.7207 c -4.01067,0 -7.1033,0.57652 -9.2793,1.72852 -2.176,1.10933 -3.26367,2.68637 -3.26367,4.73437 0,2.13334 1.06588,3.20117 3.19922,3.20117 0.85333,0 1.49325,-0.19217 1.91992,-0.57617 0.46933,-0.42666 0.93887,-1.25876 1.4082,-2.49609 0.256,-0.81067 0.51158,-1.49416 0.76758,-2.04883 0.29867,-0.55467 0.6196,-0.98063 0.96094,-1.2793 0.34133,-0.29866 0.7673,-0.51262 1.2793,-0.64062 0.51199,-0.128 1.13013,-0.19141 1.85546,-0.19141 4.43734,0 6.65625,2.60326 6.65625,7.8086 v 2.62304 l -9.21484,4.03321 c -1.92,0.85333 -3.54257,1.70526 -4.86523,2.55859 -1.32267,0.81067 -2.38856,1.64276 -3.19922,2.49609 -0.81067,0.85334 -1.40897,1.74884 -1.79297,2.6875 -0.34134,0.93867 -0.51172,1.92132 -0.51172,2.94532 0,2.304 0.76869,4.13857 2.30469,5.5039 1.536,1.36534 3.64793,2.04688 6.33593,2.04688 2.38934,0 4.56468,-0.59635 6.52735,-1.79102 1.96266,-1.23733 3.50004,-2.90152 4.60937,-4.99219 h 0.31836 c 0,2.176 0.44971,3.86198 1.34571,5.05665 0.93866,1.19466 2.34532,1.79101 4.22265,1.79101 1.49334,0 2.92373,-0.31898 4.28906,-0.95898 0.46464,-0.23232 0.86075,-0.48895 1.22657,-0.75586 v 1.07617 h 17.02539 v -2.24024 c -1.23734,-0.0853 -2.1982,-0.21409 -2.88086,-0.38476 -0.68267,-0.17067 -1.21561,-0.51144 -1.59961,-1.02344 -0.34133,-0.55467 -0.55529,-1.34514 -0.64063,-2.36914 -0.0853,-1.024 -0.12695,-2.41082 -0.12695,-4.16016 v -2.17578 c 0,-1.70666 0.0852,-3.32728 0.25586,-4.86328 0.21333,-1.57866 0.4907,-2.98727 0.83203,-4.22461 0.64,-2.26133 1.5355,-4.11769 2.6875,-5.56836 1.152,-1.49333 2.30503,-2.23828 3.45703,-2.23828 0.384,0 0.72477,0.0852 1.02344,0.25586 0.34133,0.17067 0.6821,0.36284 1.02344,0.57617 0.384,0.17067 0.80996,0.34106 1.27929,0.51172 0.46934,0.17067 1.04585,0.25586 1.72852,0.25586 1.19467,0 2.11195,-0.27736 2.75195,-0.83203 0.64,-0.59733 0.96094,-1.40764 0.96094,-2.43164 0,-1.10933 -0.40613,-1.985 -1.2168,-2.625 -0.768,-0.68267 -1.83388,-1.02344 -3.19922,-1.02344 -1.10933,0 -2.197,0.21201 -3.26367,0.63867 -1.06666,0.42667 -2.09093,1.02497 -3.07226,1.79297 -0.98134,0.72534 -1.89862,1.62084 -2.75196,2.6875 -0.81066,1.06667 -1.49416,2.23953 -2.04882,3.51953 h -0.25586 l -0.89649,-7.93554 -11.19922,2.43164 v 2.24023 c 1.36534,0 2.43122,0.0852 3.19922,0.25586 0.768,0.128 1.32273,0.5777 1.66406,1.3457 0.384,0.768 0.59796,1.96266 0.64063,3.58399 0.0853,1.62133 0.12891,3.88187 0.12891,6.7832 v 7.48828 c 0,1.62134 -0.0654,2.92297 -0.19336,3.9043 -0.0853,0.93867 -0.31913,1.66378 -0.70313,2.17578 -0.384,0.512 -0.93873,0.87456 -1.66406,1.08789 -0.44908,0.10567 -1.03239,0.17778 -1.67773,0.23438 0.11438,-0.16113 0.23351,-0.32014 0.32226,-0.49024 l -0.89648,-1.53711 c -0.384,0.64 -0.85354,1.04613 -1.40821,1.2168 -0.55466,0.128 -1.13118,0.19141 -1.72851,0.19141 -1.92,0 -2.87891,-2.43093 -2.87891,-7.29493 v -14.33593 c 0,-3.62667 -0.89745,-6.18831 -2.68945,-7.68164 -1.792,-1.536 -4.82123,-2.30274 -9.08789,-2.30274 z m -65.9375,0.63867 v 2.24024 c 0.93866,0 1.72719,0.0852 2.36719,0.25586 0.63999,0.128 1.19472,0.40536 1.66406,0.83203 0.46933,0.42667 0.87351,1.00318 1.21484,1.72851 0.34133,0.72534 0.70585,1.6862 1.08984,2.88086 l 8.31836,26.62305 h 2.36914 l 9.40821,-23.61523 h 0.25586 l 7.80664,23.61523 h 2.36914 l 9.91992,-24.51172 c 0.68267,-1.664 1.25918,-3.00725 1.72852,-4.03125 0.46933,-1.024 0.91708,-1.81447 1.34375,-2.36914 0.46933,-0.55467 0.91708,-0.91722 1.34375,-1.08789 0.46933,-0.21333 1.02406,-0.32031 1.66406,-0.32031 v -2.24024 h -12.80078 v 2.24024 c 1.74933,0 2.90236,0.15055 3.45703,0.44922 0.55467,0.29866 0.83203,0.9168 0.83203,1.85547 0,0.384 -0.0436,0.79013 -0.12891,1.21679 -0.0853,0.42667 -0.23393,0.9814 -0.44726,1.66406 -0.17067,0.64 -0.42625,1.45031 -0.76758,2.43165 l -1.28125,3.51953 -3.83984,10.36718 h -0.25586 l -8.51172,-23.74414 h -1.98438 l -9.4082,23.74414 h -0.25586 l -4.35156,-15.29492 c -0.21334,-0.85333 -0.38372,-1.55666 -0.51172,-2.11133 -0.128,-0.59733 -0.19336,-1.11044 -0.19336,-1.53711 0,-0.93866 0.34272,-1.60037 1.02539,-1.98437 0.68267,-0.384 1.85553,-0.57617 3.51953,-0.57617 v -2.24024 z m -19.93164,2.4336 c 1.49333,0 2.98713,0.34077 4.48047,1.02344 1.536,0.63999 2.79405,1.60085 3.77539,2.88085 0.68266,0.85334 1.13041,1.85582 1.34375,3.00782 0.256,1.152 0.38476,2.83602 0.38476,5.05468 v 4.22461 c 0,2.304 -0.12876,4.11679 -0.38476,5.43946 -0.256,1.32266 -0.68197,2.45391 -1.2793,3.39258 -0.42667,0.63999 -0.96156,1.21651 -1.60156,1.72851 -0.64,0.46933 -1.34333,0.8953 -2.11133,1.2793 -0.72533,0.34133 -1.49402,0.59691 -2.30469,0.76758 -0.768,0.17066 -1.53473,0.25585 -2.30273,0.25585 -1.536,0 -2.90104,-0.34077 -4.09571,-1.02343 -1.152,-0.72534 -2.13464,-1.72782 -2.94531,-3.00781 -0.768,-1.32267 -1.36435,-2.90167 -1.79101,-4.73633 -0.384,-1.83467 -0.57618,-3.8832 -0.57618,-6.14453 0,-4.352 0.78852,-7.78541 2.36719,-10.30274 1.62133,-2.56 3.96902,-3.83984 7.04102,-3.83984 z m 91.37304,12.54297 v 5.05664 c 0,1.45066 -0.212,2.83749 -0.63867,4.16015 -0.42666,1.28 -1.00318,2.40929 -1.72851,3.39063 -0.72534,0.93866 -1.57922,1.68557 -2.56055,2.24023 -0.93867,0.55467 -1.96293,0.83203 -3.07227,0.83203 -1.536,0 -2.77227,-0.44775 -3.71093,-1.34375 -0.93867,-0.896 -1.40821,-2.04707 -1.40821,-3.45507 0,-0.93867 0.21396,-1.85596 0.64063,-2.75196 0.46933,-0.896 1.21428,-1.79345 2.23828,-2.68945 1.024,-0.896 2.3692,-1.7915 4.0332,-2.6875 1.70667,-0.896 3.77503,-1.81329 6.20703,-2.75195 z"
       transform="scale(0.26458333)"
       id="text817"
       inkscape:connector-curvature="0" />
    <g
       id="g835"
       transform="matrix(0.64698387,0.19449544,-0.19449544,0.64698387,50.263252,11.921965)">
      <g
         id="g849" />
    </g>
  </g>
</svg>
