<?xml version="1.0" encoding="iso-8859-1"?>
<!-- Generator: Adobe Illustrator 17.1.0, SVG Export Plug-In . SVG Version: 6.00 Build 0)  -->
<!DOCTYPE svg PUBLIC "-//W3C//DTD SVG 1.0//EN" "http://www.w3.org/TR/2001/REC-SVG-20010904/DTD/svg10.dtd">
<svg version="1.0" xmlns="http://www.w3.org/2000/svg" xmlns:xlink="http://www.w3.org/1999/xlink" x="0px" y="0px" width="110px"
	 height="110px" viewBox="0 0 110 110" style="enable-background:new 0 0 110 110;" xml:space="preserve">
<g id="Artboard">
</g>
<g id="Multicolor">
	<circle style="fill:#25B7D3;" cx="55" cy="55" r="55"/>
	<g>
		<polygon style="fill:#F0F1F1;" points="71,27 55,35 39,27 23,35 23,87 39,79 55,87 71,79 87,87 87,35 		"/>
		<polygon style="fill:#FFFFFF;" points="23,87 39,79 39,27 23,35 		"/>
		<polygon style="fill:#FFFFFF;" points="55,87 71,79 71,27 55,35 		"/>
		<g>
			<g>
				<path style="fill:#FA5655;" d="M27.706,70.956c-0.528-0.162-0.824-0.722-0.662-1.25c0,0,0.221-0.721,0.634-1.925
					c0.179-0.522,0.748-0.802,1.27-0.622c0.523,0.179,0.801,0.747,0.622,1.27c-0.397,1.16-0.612,1.857-0.614,1.866
					C28.794,70.82,28.237,71.119,27.706,70.956z"/>
			</g>
			<g>
				<path style="fill:#FA5655;" d="M60.829,66.143c-0.479-0.274-0.645-0.885-0.371-1.365c0.274-0.479,0.885-0.646,1.365-0.371
					c0.972,0.557,2.031,0.678,3.09,0.528c0.548-0.077,1.053,0.304,1.13,0.851s-0.304,1.053-0.851,1.13
					C63.629,67.137,62.215,66.937,60.829,66.143z M67.793,65.072c-0.302-0.462-0.172-1.082,0.291-1.384
					c0.91-0.594,1.817-1.396,2.697-2.386c0.367-0.413,0.999-0.45,1.412-0.083c0.413,0.367,0.45,0.999,0.083,1.412
					c-0.997,1.122-2.04,2.041-3.099,2.732C68.717,65.664,68.096,65.536,67.793,65.072z M29.586,65.393
					c-0.516-0.197-0.775-0.774-0.579-1.291c0.472-1.238,0.963-2.461,1.459-3.636c0.215-0.509,0.801-0.747,1.311-0.532
					c0.509,0.215,0.747,0.802,0.532,1.311c-0.488,1.153-0.969,2.354-1.433,3.569C30.683,65.324,30.11,65.591,29.586,65.393z
					 M57.738,63.215c-0.68-0.926-1.362-2.055-2.085-3.454c-0.254-0.49-0.062-1.094,0.429-1.348c0.491-0.253,1.094-0.062,1.348,0.429
					c0.675,1.305,1.303,2.348,1.921,3.188c0.327,0.445,0.231,1.071-0.214,1.398C58.69,63.757,58.063,63.658,57.738,63.215z
					 M73.309,59.704c-0.466-0.297-0.603-0.915-0.306-1.381c0.636-0.999,1.257-2.106,1.843-3.29c0.245-0.495,0.845-0.698,1.34-0.453
					s0.698,0.845,0.453,1.34c-0.618,1.249-1.274,2.419-1.949,3.478C74.395,59.86,73.778,60.003,73.309,59.704z M32.546,58.217
					c-0.499-0.237-0.711-0.833-0.474-1.332c0.592-1.245,1.193-2.426,1.787-3.51c0.266-0.484,0.873-0.661,1.358-0.396
					c0.484,0.265,0.662,0.873,0.396,1.358c-0.576,1.051-1.16,2.197-1.735,3.407C33.639,58.246,33.042,58.453,32.546,58.217z
					 M53.954,56.214c-0.696-1.529-1.14-2.513-1.618-3.513c-0.238-0.498-0.028-1.095,0.471-1.333
					c0.499-0.239,1.095-0.027,1.333,0.471c0.486,1.016,0.946,2.035,1.633,3.546c0.229,0.502,0.008,1.095-0.495,1.325
					C54.776,56.938,54.183,56.716,53.954,56.214z M36.179,51.362c-0.46-0.305-0.586-0.926-0.28-1.386
					c0.812-1.224,1.631-2.3,2.435-3.199c0.368-0.412,1-0.447,1.412-0.08c0.412,0.368,0.448,1,0.08,1.412
					c-0.74,0.828-1.5,1.828-2.26,2.973C37.259,51.544,36.638,51.666,36.179,51.362z M50.568,49.355
					c-0.743-1.228-1.46-2.162-2.191-2.854c-0.401-0.379-0.419-1.012-0.039-1.414c0.379-0.401,1.012-0.419,1.414-0.039
					c0.864,0.817,1.691,1.888,2.528,3.272c0.286,0.473,0.135,1.087-0.338,1.373C51.469,49.979,50.854,49.827,50.568,49.355z
					 M41.145,45.431c-0.284-0.474-0.13-1.088,0.344-1.372c1.36-0.815,2.78-1.208,4.33-1.007c0.548,0.072,0.934,0.573,0.863,1.121
					s-0.576,0.931-1.121,0.863c-1.098-0.144-2.085,0.165-3.044,0.739C42.044,46.059,41.43,45.906,41.145,45.431z"/>
			</g>
			<g>
				<path style="fill:#FA5655;" d="M76.962,52.813c-0.515-0.2-0.77-0.78-0.569-1.294c0.427-1.099,0.651-1.81,0.653-1.817
					c0.165-0.527,0.726-0.821,1.253-0.656c0.527,0.165,0.821,0.726,0.656,1.252c-0.01,0.031-0.244,0.777-0.698,1.945
					C78.055,52.759,77.475,53.013,76.962,52.813z"/>
			</g>
		</g>
		<path style="fill:#FA5655;" d="M82.707,45.293L80.414,43l2.293-2.293c0.391-0.391,0.391-1.023,0-1.414s-1.023-0.391-1.414,0
			L79,41.586l-2.293-2.293c-0.391-0.391-1.023-0.391-1.414,0s-0.391,1.023,0,1.414L77.586,43l-2.293,2.293
			c-0.391,0.391-0.391,1.023,0,1.414s1.023,0.391,1.414,0L79,44.414l2.293,2.293c0.391,0.391,1.023,0.391,1.414,0
			S83.098,45.684,82.707,45.293z"/>
	</g>
</g>
</svg>
