<?xml version="1.0" encoding="iso-8859-1"?>
<!-- Generator: Adobe Illustrator 17.1.0, SVG Export Plug-In . SVG Version: 6.00 Build 0)  -->
<!DOCTYPE svg PUBLIC "-//W3C//DTD SVG 1.0//EN" "http://www.w3.org/TR/2001/REC-SVG-20010904/DTD/svg10.dtd">
<svg version="1.0" xmlns="http://www.w3.org/2000/svg" xmlns:xlink="http://www.w3.org/1999/xlink" x="0px" y="0px" width="110px"
	 height="110px" viewBox="0 0 110 110" style="enable-background:new 0 0 110 110;" xml:space="preserve">
<g id="Artboard">
</g>
<g id="Multicolor">
	<circle style="fill:#25B7D3;" cx="55" cy="55" r="55"/>
	<g>
		<path style="fill:#FACB1B;" d="M81.882,45.208c-2.116,1.708-3.055,1.933-6.349,2.562c2.622-4.925,0.693-9.041-3.175-12.812
			c0.109,2.163-0.981,4.193-4.233,5.979c2.117-3.986,1.411-7.972-2.116-11.958c0,1.708-1.056,5.167-2.114,6.021
			c0.176-3.918-4-7-11-12c-4,10-10,9-10.167,19.646C40.787,39.533,39.61,35.1,40.894,32c-7,4-12,10-6.633,19.188
			c-1.771-0.36-4.233-0.854-6.349-4.271c-1.165,5.17,0.167,10.424,5.513,13.775C35.428,50.604,44.325,43,55,43
			c10.392,0,19.096,7.208,21.398,16.896C81.781,56.675,83.53,51.661,81.882,45.208z"/>
		<g>
			<path style="fill:#FA5655;" d="M71.47,50.421c1.371-2.132,0.158-5.881-1.229-7.776c-0.714,1.779-2.454,2.889-4.082,3.396
				C68.153,47.218,69.944,48.699,71.47,50.421z"/>
			<path style="fill:#FA5655;" d="M55,43c2.846,0,5.563,0.546,8.06,1.531c0.208-4.659-2.84-9.819-9.166-12.531
				c0,9.986-6.227,8.897-7.743,12.858C48.859,43.666,51.851,43,55,43z"/>
			<path style="fill:#FA5655;" d="M42.463,46.925c-1.672-0.836-3.41-2.071-3.969-3.425c-2.369,3.276-2.642,6.38-1.342,8.644
				C38.614,50.118,40.411,48.352,42.463,46.925z"/>
		</g>
		<circle style="fill:#FFFFFF;" cx="55" cy="65" r="22"/>
		<circle style="fill:#6FDAF1;" cx="55" cy="65" r="17"/>
		<path style="fill:#9CE5F4;" d="M55,48c-9.389,0-17,7.611-17,17c0,4.679,1.892,8.916,4.951,11.99L66.99,52.951
			C63.916,49.892,59.679,48,55,48z"/>
		<path style="fill:#FFFFFF;" d="M46,65c0,0.552-0.448,1-1,1h-2c-0.552,0-1-0.448-1-1s0.448-1,1-1h2C45.552,64,46,64.448,46,65z"/>
		<path style="fill:#FFFFFF;" d="M64,65c0,0.552,0.448,1,1,1h2c0.552,0,1-0.448,1-1s-0.448-1-1-1h-2C64.448,64,64,64.448,64,65z"/>
		<path style="fill:#FFFFFF;" d="M48.636,58.636c-0.391,0.391-1.024,0.391-1.414,0l-1.414-1.414c-0.391-0.391-0.391-1.024,0-1.414
			c0.391-0.391,1.024-0.391,1.414,0l1.414,1.414C49.027,57.612,49.027,58.246,48.636,58.636z"/>
		<path style="fill:#FFFFFF;" d="M61.364,58.636c-0.391-0.391-0.391-1.024,0-1.414l1.414-1.414c0.391-0.391,1.024-0.391,1.414,0
			c0.391,0.391,0.391,1.024,0,1.414l-1.414,1.414C62.388,59.027,61.754,59.027,61.364,58.636z"/>
		<path style="fill:#FFFFFF;" d="M61.364,71.364c0.391-0.391,1.024-0.391,1.414,0l1.414,1.414c0.391,0.391,0.391,1.024,0,1.414
			c-0.391,0.391-1.024,0.391-1.414,0l-1.414-1.414C60.973,72.388,60.973,71.754,61.364,71.364z"/>
		<path style="fill:#FFFFFF;" d="M48.636,71.364c-0.391-0.391-1.024-0.391-1.414,0l-1.414,1.414c-0.391,0.391-0.391,1.024,0,1.414
			c0.391,0.391,1.024,0.391,1.414,0l1.414-1.414C49.027,72.388,49.027,71.754,48.636,71.364z"/>
		<path style="fill:#FFFFFF;" d="M55,74c0.552,0,1,0.448,1,1v2c0,0.552-0.448,1-1,1s-1-0.448-1-1v-2C54,74.448,54.448,74,55,74z"/>
		<path style="fill:#3E3E3F;" d="M60.194,70.423c-0.347,0.347-0.897,0.386-1.29,0.092l-4.596-3.899
			c-0.344-0.258-0.559-0.653-0.59-1.082s0.127-0.85,0.431-1.155s0.726-0.461,1.155-0.431c0.429,0.031,0.824,0.246,1.082,0.59
			l3.899,4.596C60.58,69.526,60.541,70.076,60.194,70.423z"/>
		<path style="fill:#FA5655;" d="M56.764,65.003c0.043,0.513-0.131,1.02-0.48,1.399c-0.348,0.379-0.84,0.594-1.354,0.594
			c-0.515,0-1.006-0.215-1.354-0.594c-0.348-0.379-0.522-0.886-0.48-1.399l0.751-11.007C53.894,53.433,54.365,53,54.931,53
			c0.565,0,1.036,0.433,1.083,0.997L56.764,65.003z"/>
	</g>
</g>
</svg>
