<?xml version="1.0" encoding="iso-8859-1"?>
<!-- Generator: Adobe Illustrator 17.1.0, SVG Export Plug-In . SVG Version: 6.00 Build 0)  -->
<!DOCTYPE svg PUBLIC "-//W3C//DTD SVG 1.0//EN" "http://www.w3.org/TR/2001/REC-SVG-20010904/DTD/svg10.dtd">
<svg version="1.0" xmlns="http://www.w3.org/2000/svg" xmlns:xlink="http://www.w3.org/1999/xlink" x="0px" y="0px" width="110px"
	 height="110px" viewBox="0 0 110 110" style="enable-background:new 0 0 110 110;" xml:space="preserve">
<g id="Artboard">
</g>
<g id="Multicolor">
	<circle style="fill:#E04F5F;" cx="55" cy="55" r="55"/>
	<g>
		<path style="fill:#F7B4B4;" d="M86,24c-2.732-2.049-10.595,1.967-15.306,4.718C66.09,26.359,60.729,25,55,25
			s-11.09,1.359-15.694,3.718C34.595,25.967,26.732,21.951,24,24c-2.875,2.156-0.066,13.098,1.74,19.08
			C24.617,45.873,24,48.873,24,52c0,4.474,1.257,8.69,3.469,12.406L35,87h8l4.715-8.757C50.053,78.733,52.49,79,55,79
			s4.947-0.267,7.285-0.757L67,87h8l7.531-22.594C84.743,60.69,86,56.474,86,52c0-3.127-0.617-6.127-1.74-8.921
			C86.066,37.098,88.875,26.156,86,24z"/>
		<path style="fill:#FBC8C8;" d="M39.306,28.718C34.595,25.967,26.732,21.951,24,24c-2.875,2.156-0.066,13.098,1.74,19.08
			C24.617,45.873,24,48.873,24,52c0,4.474,1.257,8.69,3.469,12.405L35,87h8l4.715-8.757C50.053,78.733,52.49,79,55,79V25
			C49.271,25,43.91,26.359,39.306,28.718z"/>
		<ellipse style="fill:#F79392;" cx="55" cy="62.5" rx="14" ry="9.5"/>
		<path style="fill:#F79392;" d="M82.099,38.889c1.007-2.898,3.322-10.247,1.389-11.577c-1.806-1.242-7.315,1.532-9.993,3.02
			C77.014,32.613,79.954,35.532,82.099,38.889z"/>
		<path style="fill:#F79392;" d="M36.505,30.331c-2.678-1.487-8.188-4.262-9.993-3.02c-1.933,1.33,0.382,8.679,1.389,11.577
			C30.046,35.532,32.986,32.613,36.505,30.331z"/>
		<ellipse style="fill:#84462D;" cx="51" cy="63" rx="2" ry="4"/>
		<ellipse style="fill:#84462D;" cx="59" cy="63" rx="2" ry="4"/>
		<path style="fill:#692E19;" d="M46.74,39c-1.689,0-3.127,1.051-3.713,2.532l2.456,1.418L43,44.383
			C43.564,45.907,45.019,47,46.74,47c2.209,0,4-1.791,4-4S48.949,39,46.74,39z"/>
		<path style="fill:#692E19;" d="M62.74,39c-1.689,0-3.127,1.051-3.713,2.532l2.456,1.418L59,44.383
			C59.564,45.907,61.019,47,62.74,47c2.209,0,4-1.791,4-4S64.949,39,62.74,39z"/>
	</g>
</g>
</svg>
