<?xml version="1.0" encoding="iso-8859-1"?>
<!-- Generator: Adobe Illustrator 17.1.0, SVG Export Plug-In . SVG Version: 6.00 Build 0)  -->
<!DOCTYPE svg PUBLIC "-//W3C//DTD SVG 1.0//EN" "http://www.w3.org/TR/2001/REC-SVG-20010904/DTD/svg10.dtd">
<svg version="1.0" xmlns="http://www.w3.org/2000/svg" xmlns:xlink="http://www.w3.org/1999/xlink" x="0px" y="0px" width="110px"
	 height="110px" viewBox="0 0 110 110" style="enable-background:new 0 0 110 110;" xml:space="preserve">
<g id="Artboard">
</g>
<g id="Multicolor">
	<circle style="fill:#32BEA6;" cx="55" cy="55" r="55"/>
	<g>
		<g>
			<path style="fill:#3E3E3F;" d="M69.442,84.403L59,67h-2v-8h-4v8h-2L40.558,84.403c-0.318,0.53-0.326,1.189-0.022,1.727
				S41.411,87,42.029,87c0.602,0,1.161-0.316,1.47-0.833L53,70.333V85c0,1.104,0.896,2,2,2s2-0.896,2-2V70.333l9.5,15.834
				C66.81,86.684,67.369,87,67.971,87c0.618,0,1.188-0.333,1.492-0.87S69.76,84.933,69.442,84.403z"/>
		</g>
		<g>
			<path style="fill:#5B5C5F;" d="M67,66c0,0.552-0.448,1-1,1H44c-0.552,0-1-0.448-1-1v-2c0-0.552,0.448-1,1-1h22
				c0.552,0,1,0.448,1,1V66z"/>
		</g>
		<g>
			<path style="fill:#FACB1B;" d="M86.774,47.823c0.213,0.51-0.027,1.095-0.537,1.308l-5.17,2.161
				c-0.51,0.213-1.095-0.027-1.308-0.537L69.72,26.855c-0.213-0.51,0.027-1.095,0.537-1.308l5.17-2.161
				c0.51-0.213,1.095,0.027,1.308,0.537L86.774,47.823z"/>
		</g>
		<g>
			<polygon style="fill:#F3B607;" points="26.762,54.032 31.208,64.038 35.719,62.016 31.357,51.96 			"/>
		</g>
		<g>
			<path style="fill:#FACB1B;" d="M30.741,65.436c0.503-0.227,0.727-0.819,0.5-1.323l-4.481-10.171
				c-0.227-0.503-0.819-0.727-1.323-0.5l-1.823,0.822c-0.503,0.227-0.727,0.819-0.5,1.323l4.481,10.171
				c0.227,0.503,0.819,0.727,1.323,0.5L30.741,65.436z"/>
		</g>
		<g>
			<path style="fill:#DF2C2C;" d="M79.026,49.002c0.213,0.51-0.027,1.095-0.537,1.308l-8.677,3.627
				c-0.51,0.213-1.095-0.027-1.308-0.537l-8.573-20.393c-0.213-0.51,0.027-1.095,0.537-1.308l8.677-3.627
				c0.51-0.213,1.095,0.027,1.308,0.537L79.026,49.002z"/>
		</g>
		<g>
			<polygon style="fill:#5B5C5F;" points="51,57.986 51,59 59,59 59,55.468 			"/>
		</g>
		<g>
			<polygon style="fill:#DF2C2C;" points="68.156,52.587 36.014,62.701 30.82,50.684 60.291,33.85 			"/>
		</g>
		<g>
			<path style="fill:#FBE158;" d="M28.948,58.948l-3.66,1.61l-2.19-4.99c-0.23-0.5-0.01-1.09,0.5-1.32l1.82-0.82
				c0.5-0.23,1.09,0,1.32,0.5l0.04,0.08L28.948,58.948z"/>
		</g>
		<g>
			<polygon style="fill:#FACB1B;" points="33.508,56.948 28.948,58.948 26.778,54.008 31.348,51.948 			"/>
		</g>
		<g>
			<path style="fill:#FA5655;" d="M74.738,38.838l-10.44,4.671L60.268,34h-0.01l-0.35-0.921c-0.21-0.51,0.03-1.14,0.54-1.35
				l8.68-3.65c0.5-0.21,1.09,0.02,1.3,0.529L74.738,38.838z"/>
		</g>
		<g>
			<path style="fill:#FBE158;" d="M81.708,35.778l-6.97,3.06l-5.04-12c-0.21-0.51,0.03-1.09,0.54-1.31l5.17-2.16
				c0.51-0.21,1.09,0.03,1.31,0.54L81.708,35.778z"/>
		</g>
		<g>
			<polygon style="fill:#FA5655;" points="64.328,43.406 36.278,55.728 33.508,56.948 31.348,51.948 30.798,50.668 60.258,33.838 
				60.308,33.816 			"/>
		</g>
	</g>
</g>
</svg>
