<?xml version="1.0" encoding="iso-8859-1"?>
<!-- Generator: Adobe Illustrator 17.1.0, SVG Export Plug-In . SVG Version: 6.00 Build 0)  -->
<!DOCTYPE svg PUBLIC "-//W3C//DTD SVG 1.0//EN" "http://www.w3.org/TR/2001/REC-SVG-20010904/DTD/svg10.dtd">
<svg version="1.0" xmlns="http://www.w3.org/2000/svg" xmlns:xlink="http://www.w3.org/1999/xlink" x="0px" y="0px" width="110px"
	 height="110px" viewBox="0 0 110 110" style="enable-background:new 0 0 110 110;" xml:space="preserve">
<g id="Artboard">
</g>
<g id="Multicolor">
	<circle style="fill:#FABC3D;" cx="55" cy="55" r="55"/>
	<g>
		<g>
			<path style="fill:#099686;" d="M63.449,28.603c0.969-1.852,0.46-4.467,0.46-4.467s-3.546-0.697-5.303,1.061
				c-0.743,0.743-1.241,1.595-1.498,2.421C59.811,26.908,61.946,27.42,63.449,28.603z"/>
		</g>
		<g>
			<path style="fill:#FFFFFF;" d="M27,75c0,4.418,3.582,8,8,8h40V67H35C30.582,67,27,70.582,27,75z"/>
		</g>
		<g>
			<path style="fill:#FFFFFF;" d="M83,53c0,3.314-2.686,6-6,6H39V47h38C80.314,47,83,49.686,83,53z"/>
		</g>
		<g>
			<path style="fill:#DF2C2C;" d="M35,83c-4.418,0-8-3.582-8-8s3.582-8,8-8h42c1.105,0,2-0.895,2-2s-0.895-2-2-2H35
				c-6.627,0-12,5.373-12,12s5.373,12,12,12h42c1.105,0,2-0.895,2-2s-0.895-2-2-2H35z"/>
		</g>
		<g>
			<path style="fill:#9C6144;" d="M55.902,28c0.234-0.088,0.458-0.15,0.685-0.222L56.902,24h-2l0.315,3.778
				C55.444,27.85,55.668,27.912,55.902,28z"/>
		</g>
		<g>
			<path style="fill:#12B2A0;" d="M60.766,27.409l3.162-3.162c-0.011-0.066-0.019-0.11-0.019-0.11s-3.546-0.697-5.303,1.061
				c-0.743,0.743-1.241,1.595-1.498,2.421C58.475,27.259,59.696,27.215,60.766,27.409z"/>
		</g>
		<g>
			<path style="fill:#DF2C2C;" d="M55.902,43c-14.469,0-12.427-19.66,0-15C68.303,23.35,70.388,43,55.902,43z"/>
		</g>
		<g>
			<path style="fill:#E2E4E5;" d="M39,52h43.91c-0.121-0.718-0.367-1.393-0.719-2H39V52z"/>
		</g>
		<g>
			<path style="fill:#E2E4E5;" d="M39,56h43.191c0.352-0.607,0.599-1.282,0.719-2H39V56z"/>
		</g>
		<g>
			<path style="fill:#0484AB;" d="M77,43H37c-1.105,0-2,0.895-2,2s0.895,2,2,2h40c3.313,0,6,2.686,6,6s-2.687,6-6,6H37
				c-1.105,0-2,0.895-2,2s0.895,2,2,2h40c5.523,0,10-4.477,10-10S82.523,43,77,43z"/>
		</g>
		<g>
			<path style="fill:#FA5655;" d="M55.902,28c-9.952-3.732-13.233,8.127-6.717,13.001l13.11-13.11
				C60.658,27.128,58.512,27.021,55.902,28z"/>
		</g>
		<g>
			<g>
				<path style="fill:#059BBF;" d="M37,59c-1.104,0-2,0.896-2,2s0.896,2,2,2h17.683l4-4H37z"/>
			</g>
			<g>
				<path style="fill:#059BBF;" d="M35,45c0,1.104,0.896,2,2,2h33.683l4-4H37C35.896,43,35,43.896,35,45z"/>
			</g>
		</g>
		<g>
			<path style="fill:#E2E4E5;" d="M27.585,78c0.295,0.726,0.691,1.399,1.175,2H75v-2H27.585z"/>
		</g>
		<g>
			<path style="fill:#E2E4E5;" d="M27.069,74C27.028,74.328,27,74.661,27,75c0,0.34,0.028,0.672,0.069,1H75v-2H27.069z"/>
		</g>
		<g>
			<path style="fill:#E2E4E5;" d="M28.76,70c-0.483,0.602-0.879,1.274-1.174,2H75v-2H28.76z"/>
		</g>
		<g>
			<path style="fill:#FA5655;" d="M23,75c0,5.327,3.474,9.837,8.278,11.404l3.42-3.419C30.421,82.825,27,79.316,27,75
				c0-4.418,3.582-8,8-8h15.683l4-4H35C28.373,63,23,68.373,23,75z"/>
		</g>
	</g>
</g>
</svg>
