<?xml version="1.0" encoding="iso-8859-1"?>
<!-- Generator: Adobe Illustrator 17.1.0, SVG Export Plug-In . SVG Version: 6.00 Build 0)  -->
<!DOCTYPE svg PUBLIC "-//W3C//DTD SVG 1.0//EN" "http://www.w3.org/TR/2001/REC-SVG-20010904/DTD/svg10.dtd">
<svg version="1.0" xmlns="http://www.w3.org/2000/svg" xmlns:xlink="http://www.w3.org/1999/xlink" x="0px" y="0px" width="110px"
	 height="110px" viewBox="0 0 110 110" style="enable-background:new 0 0 110 110;" xml:space="preserve">
<g id="Artboard">
</g>
<g id="Multicolor">
	<circle style="fill:#32BEA6;" cx="55" cy="54.848" r="55"/>
	<g>
		<path style="fill:#0484AB;" d="M72,31.968H26.96c-2.165,0-3.92-1.755-3.92-3.92s1.755-3.92,3.92-3.92H71c0.552,0,1,0.448,1,1
			V31.968z"/>
		<path style="fill:#FFFFFF;" d="M26.96,31.968v-2.12c0-1.105,0.895-2,2-2H69v4.12H26.96z"/>
		<path style="fill:#0484AB;" d="M26.96,31.968c-2.165,0-3.92-1.755-3.92-3.92v54.88c0,2.165,1.755,3.92,3.92,3.92H74v-53.9
			c0-0.541-0.439-0.98-0.98-0.98H26.96z"/>
		<path style="fill:#059BBF;" d="M64,31.99H26.939c-2.165,0-3.92-1.755-3.92-3.92v44.901L64,31.99z"/>
		<circle style="fill:#FFFFFF;" cx="71" cy="63.848" r="16"/>
		<path style="fill:#17B198;" d="M80.9,65.154c-0.204-0.492-0.685-0.814-1.218-0.814h-3.409v-9.228c0-0.728-0.59-1.318-1.318-1.318
			h-7.909c-0.728,0-1.318,0.59-1.318,1.318v9.228h-3.409c-0.533,0-1.014,0.321-1.218,0.814c-0.204,0.493-0.091,1.059,0.286,1.437
			l8.656,7.925c0.515,0.515,1.349,0.515,1.864,0l8.708-7.925C80.991,66.214,81.104,65.647,80.9,65.154z"/>
	</g>
</g>
</svg>
