<?xml version="1.0" encoding="iso-8859-1"?>
<!-- Generator: Adobe Illustrator 17.1.0, SVG Export Plug-In . SVG Version: 6.00 Build 0)  -->
<!DOCTYPE svg PUBLIC "-//W3C//DTD SVG 1.0//EN" "http://www.w3.org/TR/2001/REC-SVG-20010904/DTD/svg10.dtd">
<svg version="1.0" xmlns="http://www.w3.org/2000/svg" xmlns:xlink="http://www.w3.org/1999/xlink" x="0px" y="0px" width="110px"
	 height="110px" viewBox="0 0 110 110" style="enable-background:new 0 0 110 110;" xml:space="preserve">
<g id="Artboard" style="display:none;">
	<rect x="-223" y="-71" style="display:inline;fill:#8C8C8C;" width="1412" height="743"/>
</g>
<g id="R-Multicolor">
	<circle style="fill:#32BEA6;" cx="55" cy="55" r="55"/>
	<g>
		<path style="fill:#84462D;" d="M50.41,67.42L32.66,85.17c-2.21,2.21-5.79,2.21-8,0s-2.21-5.79,0-8l17.79-17.79
			C44.42,62.66,47.15,65.42,50.41,67.42z"/>
		<path style="fill:#9C6144;" d="M45.89,63.81L24.6,85.1c-2.15-2.21-2.13-5.74,0.05-7.93l17.8-17.8
			C43.42,60.98,44.58,62.47,45.89,63.81z"/>
		<path style="fill:#F0F1F1;" d="M87,47c0,13.25-10.75,24-24,24c-13.298,0-24-10.851-24-24c0-13.25,10.75-24,24-24S87,33.75,87,47z"
			/>
		<circle style="fill:#40C9E7;" cx="63" cy="47" r="19"/>
		<path style="fill:#6FDAF1;" d="M44,47c0-10.494,8.506-19,19-19c5.15,0,9.814,2.057,13.236,5.384L49.384,60.236
			C46.057,56.814,44,52.15,44,47z"/>
	</g>
</g>
<g id="Multicolor" style="display:none;">
	<g style="display:inline;">
		<path style="fill:#84462D;" d="M50.41,67.42L32.66,85.17c-2.21,2.21-5.79,2.21-8,0s-2.21-5.79,0-8l17.79-17.79
			C44.42,62.66,47.15,65.42,50.41,67.42z"/>
		<path style="fill:#9C6144;" d="M45.89,63.81L24.6,85.1c-2.15-2.21-2.13-5.74,0.05-7.93l17.8-17.8
			C43.42,60.98,44.58,62.47,45.89,63.81z"/>
		<path style="fill:#F0F1F1;" d="M87,47c0,13.25-10.75,24-24,24c-13.298,0-24-10.851-24-24c0-13.25,10.75-24,24-24S87,33.75,87,47z"
			/>
		<circle style="fill:#40C9E7;" cx="63" cy="47" r="19"/>
		<path style="fill:#6FDAF1;" d="M44,47c0-10.494,8.506-19,19-19c5.15,0,9.814,2.057,13.236,5.384L49.384,60.236
			C46.057,56.814,44,52.15,44,47z"/>
	</g>
</g>
<g id="Blue" style="display:none;">
	<g style="display:inline;">
		<g>
			<path style="fill:#0C333D;" d="M50.413,67.42l-17.75,17.75c-2.21,2.21-5.79,2.21-8,0c-2.21-2.21-2.21-5.79,0-8l17.79-17.79
				C44.423,62.66,47.153,65.42,50.413,67.42z"/>
		</g>
		<g>
			<path style="fill:#0F6175;" d="M45.893,63.81L24.603,85.1c-2.15-2.21-2.13-5.74,0.05-7.93l17.8-17.8
				C43.423,60.98,44.583,62.47,45.893,63.81z"/>
		</g>
		<g>
			<path style="fill:#009FC7;" d="M87.003,47c0,13.25-10.75,24-24,24c-13.298,0-24-10.851-24-24c0-13.25,10.75-24,24-24
				S87.003,33.75,87.003,47z"/>
		</g>
		<g>
			<circle style="fill:#E1F5FA;" cx="63.003" cy="47" r="19"/>
		</g>
		<g>
			<path style="fill:#FFFFFF;" d="M44.003,47c0-10.494,8.506-19,19-19c5.15,0,9.814,2.057,13.235,5.384L49.387,60.236
				C46.059,56.814,44.003,52.15,44.003,47z"/>
		</g>
	</g>
</g>
<g id="R-Blue" style="display:none;">
	<g style="display:inline;">
		<circle style="fill:#81D2EB;" cx="55" cy="55" r="55"/>
	</g>
	<g style="display:inline;">
		<g>
			<path style="fill:#0C333D;" d="M50.41,67.42L32.66,85.17c-2.21,2.21-5.79,2.21-8,0c-2.21-2.21-2.21-5.79,0-8l17.79-17.79
				C44.42,62.66,47.15,65.42,50.41,67.42z"/>
		</g>
		<g>
			<path style="fill:#0F6175;" d="M45.89,63.81L24.6,85.1c-2.15-2.21-2.13-5.74,0.05-7.93l17.8-17.8
				C43.42,60.98,44.58,62.47,45.89,63.81z"/>
		</g>
		<g>
			<path style="fill:#009FC7;" d="M87,47c0,13.25-10.75,24-24,24c-13.298,0-24-10.851-24-24c0-13.25,10.75-24,24-24S87,33.75,87,47z
				"/>
		</g>
		<g>
			<circle style="fill:#E1F5FA;" cx="63" cy="47" r="19"/>
		</g>
		<g>
			<path style="fill:#FFFFFF;" d="M44,47c0-10.494,8.506-19,19-19c5.15,0,9.813,2.057,13.235,5.384L49.384,60.236
				C46.057,56.814,44,52.15,44,47z"/>
		</g>
	</g>
</g>
<g id="Green" style="display:none;">
	<g style="display:inline;">
		<g>
			<path style="fill:#0A3631;" d="M50.413,67.42l-17.75,17.75c-2.21,2.21-5.79,2.21-8,0c-2.21-2.21-2.21-5.79,0-8l17.79-17.79
				C44.423,62.66,47.153,65.42,50.413,67.42z"/>
		</g>
		<g>
			<path style="fill:#14635B;" d="M45.893,63.81L24.603,85.1c-2.15-2.21-2.13-5.74,0.05-7.93l17.8-17.8
				C43.423,60.98,44.583,62.47,45.893,63.81z"/>
		</g>
		<g>
			<path style="fill:#00B8A5;" d="M87.003,47c0,13.25-10.75,24-24,24c-13.298,0-24-10.851-24-24c0-13.25,10.75-24,24-24
				S87.003,33.75,87.003,47z"/>
		</g>
		<g>
			<circle style="fill:#D7FCF9;" cx="63.003" cy="47" r="19"/>
		</g>
		<g>
			<path style="fill:#FFFFFF;" d="M44.003,47c0-10.494,8.506-19,19-19c5.15,0,9.814,2.057,13.235,5.384L49.387,60.236
				C46.059,56.814,44.003,52.15,44.003,47z"/>
		</g>
	</g>
</g>
<g id="R-Green" style="display:none;">
	<g style="display:inline;">
		<circle style="fill:#87E0C8;" cx="55" cy="55" r="55"/>
	</g>
	<g style="display:inline;">
		<g>
			<path style="fill:#0A3631;" d="M50.41,67.42L32.66,85.17c-2.21,2.21-5.79,2.21-8,0c-2.21-2.21-2.21-5.79,0-8l17.79-17.79
				C44.42,62.66,47.15,65.42,50.41,67.42z"/>
		</g>
		<g>
			<path style="fill:#14635B;" d="M45.89,63.81L24.6,85.1c-2.15-2.21-2.13-5.74,0.05-7.93l17.8-17.8
				C43.42,60.98,44.58,62.47,45.89,63.81z"/>
		</g>
		<g>
			<path style="fill:#00B8A5;" d="M87,47c0,13.25-10.75,24-24,24c-13.298,0-24-10.851-24-24c0-13.25,10.75-24,24-24S87,33.75,87,47z
				"/>
		</g>
		<g>
			<circle style="fill:#D7FCF9;" cx="63" cy="47" r="19"/>
		</g>
		<g>
			<path style="fill:#FFFFFF;" d="M44,47c0-10.494,8.506-19,19-19c5.15,0,9.813,2.057,13.235,5.384L49.384,60.236
				C46.057,56.814,44,52.15,44,47z"/>
		</g>
	</g>
</g>
<g id="Red" style="display:none;">
	<g style="display:inline;">
		<g>
			<path style="fill:#4A1410;" d="M50.41,67.42L32.66,85.17c-2.21,2.21-5.79,2.21-8,0c-2.21-2.21-2.21-5.79,0-8l17.79-17.79
				C44.42,62.66,47.15,65.42,50.41,67.42z"/>
		</g>
		<g>
			<path style="fill:#7D261E;" d="M45.89,63.81L24.6,85.1c-2.15-2.21-2.13-5.74,0.05-7.93l17.8-17.8
				C43.42,60.98,44.58,62.47,45.89,63.81z"/>
		</g>
		<g>
			<path style="fill:#E54B44;" d="M87,47c0,13.25-10.75,24-24,24c-13.298,0-24-10.851-24-24c0-13.25,10.75-24,24-24S87,33.75,87,47z
				"/>
		</g>
		<g>
			<circle style="fill:#FFEFED;" cx="63" cy="47" r="19"/>
		</g>
		<g>
			<path style="fill:#FFFFFF;" d="M44,47c0-10.494,8.506-19,19-19c5.15,0,9.813,2.057,13.235,5.384L49.384,60.236
				C46.057,56.814,44,52.15,44,47z"/>
		</g>
	</g>
</g>
<g id="R-Red" style="display:none;">
	<g style="display:inline;">
		<circle style="fill:#FABBAF;" cx="55" cy="55" r="55"/>
	</g>
	<g style="display:inline;">
		<g>
			<path style="fill:#4A1410;" d="M50.41,67.42L32.66,85.17c-2.21,2.21-5.79,2.21-8,0c-2.21-2.21-2.21-5.79,0-8l17.79-17.79
				C44.42,62.66,47.15,65.42,50.41,67.42z"/>
		</g>
		<g>
			<path style="fill:#7D261E;" d="M45.89,63.81L24.6,85.1c-2.15-2.21-2.13-5.74,0.05-7.93l17.8-17.8
				C43.42,60.98,44.58,62.47,45.89,63.81z"/>
		</g>
		<g>
			<path style="fill:#E54B44;" d="M87,47c0,13.25-10.75,24-24,24c-13.298,0-24-10.851-24-24c0-13.25,10.75-24,24-24S87,33.75,87,47z
				"/>
		</g>
		<g>
			<circle style="fill:#FFEFED;" cx="63" cy="47" r="19"/>
		</g>
		<g>
			<path style="fill:#FFFFFF;" d="M44,47c0-10.494,8.506-19,19-19c5.15,0,9.813,2.057,13.235,5.384L49.384,60.236
				C46.057,56.814,44,52.15,44,47z"/>
		</g>
	</g>
</g>
<g id="Yellow" style="display:none;">
	<g style="display:inline;">
		<g>
			<path style="fill:#3D320C;" d="M50.413,67.42l-17.75,17.75c-2.21,2.21-5.79,2.21-8,0c-2.21-2.21-2.21-5.79,0-8l17.79-17.79
				C44.423,62.66,47.153,65.42,50.413,67.42z"/>
		</g>
		<g>
			<path style="fill:#66510D;" d="M45.893,63.81L24.603,85.1c-2.15-2.21-2.13-5.74,0.05-7.93l17.8-17.8
				C43.423,60.98,44.583,62.47,45.893,63.81z"/>
		</g>
		<g>
			<path style="fill:#FA9200;" d="M87.003,47c0,13.25-10.75,24-24,24c-13.298,0-24-10.851-24-24c0-13.25,10.75-24,24-24
				S87.003,33.75,87.003,47z"/>
		</g>
		<g>
			<circle style="fill:#FFF5D9;" cx="63.003" cy="47" r="19"/>
		</g>
		<g>
			<path style="fill:#FFFFFF;" d="M44.003,47c0-10.494,8.506-19,19-19c5.15,0,9.814,2.057,13.235,5.384L49.387,60.236
				C46.059,56.814,44.003,52.15,44.003,47z"/>
		</g>
	</g>
</g>
<g id="R-Yellow" style="display:none;">
	<g style="display:inline;">
		<circle style="fill:#FFD75E;" cx="55" cy="55" r="55"/>
	</g>
	<g style="display:inline;">
		<g>
			<path style="fill:#3D320C;" d="M50.41,67.42L32.66,85.17c-2.21,2.21-5.79,2.21-8,0c-2.21-2.21-2.21-5.79,0-8l17.79-17.79
				C44.42,62.66,47.15,65.42,50.41,67.42z"/>
		</g>
		<g>
			<path style="fill:#66510D;" d="M45.89,63.81L24.6,85.1c-2.15-2.21-2.13-5.74,0.05-7.93l17.8-17.8
				C43.42,60.98,44.58,62.47,45.89,63.81z"/>
		</g>
		<g>
			<path style="fill:#FA9200;" d="M87,47c0,13.25-10.75,24-24,24c-13.298,0-24-10.851-24-24c0-13.25,10.75-24,24-24S87,33.75,87,47z
				"/>
		</g>
		<g>
			<circle style="fill:#FFF5D9;" cx="63" cy="47" r="19"/>
		</g>
		<g>
			<path style="fill:#FFFFFF;" d="M44,47c0-10.494,8.506-19,19-19c5.15,0,9.813,2.057,13.235,5.384L49.384,60.236
				C46.057,56.814,44,52.15,44,47z"/>
		</g>
	</g>
</g>
</svg>
