<?xml version="1.0" encoding="iso-8859-1"?>
<!-- Generator: Adobe Illustrator 17.1.0, SVG Export Plug-In . SVG Version: 6.00 Build 0)  -->
<!DOCTYPE svg PUBLIC "-//W3C//DTD SVG 1.0//EN" "http://www.w3.org/TR/2001/REC-SVG-20010904/DTD/svg10.dtd">
<svg version="1.0" xmlns="http://www.w3.org/2000/svg" xmlns:xlink="http://www.w3.org/1999/xlink" x="0px" y="0px" width="110px"
	 height="110px" viewBox="0 0 110 110" style="enable-background:new 0 0 110 110;" xml:space="preserve">
<g id="Artboard">
</g>
<g id="Multicolor">
	<circle style="fill:#32BEA6;" cx="55" cy="55" r="55"/>
	<g>
		<path style="fill:#FACB1B;" d="M83,31H55.828c-0.53,0-1.039-0.211-1.414-0.586l-2.828-2.828C51.211,27.211,50.702,27,50.172,27H27
			c-2.209,0-4,1.791-4,4v52h56c4.418,0,8-3.582,8-8V35h-4V31z"/>
		<path style="fill:#FBEC9A;" d="M87,35H52.236c-0.758,0-1.45,0.428-1.789,1.106l-2.894,5.789C47.214,42.572,46.521,43,45.764,43H27
			c-2.209,0-4,1.791-4,4v36h56c4.418,0,8-3.582,8-8V35z"/>
	</g>
</g>
</svg>
